Coordinates
version=1
nRows=33
nColumns=24
inDegrees=yes

Units are S.I. units (second, meters, Newtons, ...)
If the header above contains a line with 'inDegrees', this indicates whether rotational values are in degrees (yes) or radians (no).

endheader
time	pelvis_tilt	pelvis_list	pelvis_rotation	pelvis_tx	pelvis_ty	pelvis_tz	hip_flexion_r	hip_adduction_r	hip_rotation_r	knee_angle_r	ankle_angle_r	subtalar_angle_r	mtp_angle_r	hip_flexion_l	hip_adduction_l	hip_rotation_l	knee_angle_l	ankle_angle_l	subtalar_angle_l	mtp_angle_l	lumbar_extension	lumbar_bending	lumbar_rotation
6.975000	9.026254	1.576467	-178.551401	0.326661	0.500703	-1.222439	80.753580	-28.665549	-5.955981	-114.282421	39.966399	7.296507	0.000000	84.870032	-30.805348	2.809740	-112.032841	38.075573	18.797847	0.000000	-13.002863	1.763909	3.509982
6.980000	9.125502	1.601753	-178.560087	0.326761	0.503858	-1.222445	80.409089	-28.597451	-6.214557	-113.702463	39.750080	7.273176	0.000000	84.522657	-30.790537	2.562091	-111.473306	37.875068	18.773657	0.000000	-12.882200	1.782304	3.533448
6.985000	9.190557	1.614092	-178.561555	0.326822	0.507109	-1.222411	80.028224	-28.556091	-6.468570	-113.117364	39.544646	7.225768	0.000000	84.104576	-30.768700	2.175383	-110.872733	37.679713	18.448522	0.000000	-12.797192	1.793225	3.524884
6.990000	9.285875	1.598713	-178.539022	0.326873	0.510437	-1.222372	79.663816	-28.539385	-6.712591	-112.503870	39.344456	7.171934	0.000000	83.691561	-30.708898	1.855092	-110.269262	37.482455	18.403085	0.000000	-12.676260	1.766350	3.527119
6.995000	9.352390	1.586694	-178.497590	0.326971	0.513849	-1.222437	79.251989	-28.527480	-6.967469	-111.872273	39.126133	7.197680	0.000000	83.258204	-30.648885	1.540470	-109.638814	37.244657	18.364109	0.000000	-12.594763	1.741800	3.476697
7.000000	9.405069	1.565968	-178.463684	0.326961	0.517373	-1.222475	78.817402	-28.517081	-7.224269	-111.231927	38.915921	7.184527	0.000000	82.795285	-30.614238	1.157909	-108.955359	37.030001	18.252626	0.000000	-12.513374	1.685697	3.490017
7.005000	9.480738	1.562123	-178.436108	0.326931	0.520997	-1.222494	78.388033	-28.495472	-7.507324	-110.571066	38.688679	7.184627	0.000000	82.334229	-30.565486	0.840652	-108.320689	36.781381	18.233237	0.000000	-12.401904	1.663752	3.494269
7.010000	9.538151	1.565016	-178.419456	0.326903	0.524647	-1.222523	77.939860	-28.470904	-7.797483	-109.913850	38.506061	7.193706	0.000000	81.863685	-30.540136	0.515674	-107.662742	36.576881	18.189207	0.000000	-12.305532	1.640627	3.533924
7.015000	9.558218	1.557267	-178.396056	0.326918	0.528381	-1.222618	77.443631	-28.438047	-8.083702	-109.237474	38.291740	7.205777	0.000000	81.340939	-30.511271	0.157524	-106.949206	36.374531	18.120933	0.000000	-12.255257	1.622904	3.494689
7.020000	9.614553	1.549836	-178.375460	0.326872	0.532116	-1.222682	76.967078	-28.409865	-8.372534	-108.543836	38.070697	7.244019	0.000000	80.812593	-30.486719	-0.209172	-106.298902	36.172008	18.115793	0.000000	-12.157078	1.599581	3.490408
7.025000	9.652744	1.521220	-178.358108	0.326829	0.535954	-1.222756	76.476795	-28.378321	-8.632993	-107.833552	37.835980	7.293917	0.000000	80.274492	-30.461515	-0.603929	-105.558923	35.945172	18.083434	0.000000	-12.072846	1.558161	3.475848
7.030000	9.718669	1.508094	-178.353544	0.326748	0.539826	-1.222810	76.012842	-28.337876	-8.918202	-107.120126	37.590686	7.356931	0.000000	79.771434	-30.432577	-0.928136	-104.887039	35.632035	18.124091	0.000000	-11.958217	1.535501	3.462111
7.035000	9.788869	1.533789	-178.363771	0.326590	0.543821	-1.222844	75.510444	-28.257624	-9.245589	-106.377616	37.364080	7.361135	0.000000	79.277769	-30.428038	-1.286149	-104.107052	35.382905	18.000589	0.000000	-11.835101	1.541174	3.513383
7.040000	9.808609	1.520329	-178.365634	0.326473	0.547771	-1.222926	75.000533	-28.201722	-9.536313	-105.663519	37.125404	7.338307	0.000000	78.701192	-30.424687	-1.647928	-103.402477	35.148832	18.006040	0.000000	-11.754471	1.521627	3.475822
7.045000	9.874031	1.527758	-178.356226	0.326283	0.551869	-1.223001	74.478495	-28.141263	-9.860621	-104.892924	36.889356	7.355215	0.000000	78.166085	-30.403398	-2.011473	-102.636960	34.902044	18.011296	0.000000	-11.618996	1.511675	3.485380
7.050000	9.902998	1.513748	-178.338288	0.326106	0.555985	-1.223100	73.917257	-28.091401	-10.156291	-104.108401	36.656840	7.444069	0.000000	77.585551	-30.376421	-2.392896	-101.863331	34.628542	18.061300	0.000000	-11.517738	1.496150	3.377264
7.055000	9.942946	1.510853	-178.312497	0.325967	0.560125	-1.223173	73.376704	-28.030631	-10.413613	-103.343749	36.398188	7.646019	0.000000	77.026684	-30.331995	-2.750832	-101.128258	34.291424	18.080174	0.000000	-11.425455	1.469873	3.387249
7.060000	9.965427	1.517005	-178.302340	0.325739	0.564365	-1.223281	72.799401	-27.961059	-10.793173	-102.535311	36.159060	7.524357	0.000000	76.440321	-30.318597	-3.113273	-100.295345	34.037702	18.111349	0.000000	-11.328476	1.464438	3.354657
7.065000	9.977930	1.525990	-178.318406	0.325513	0.568537	-1.223314	72.247564	-27.873718	-11.120321	-101.766670	35.862738	7.430848	0.000000	75.851826	-30.313679	-3.511503	-99.521313	33.700173	17.977382	0.000000	-11.240514	1.479913	3.317665
7.070000	10.021123	1.548078	-178.322874	0.325244	0.572763	-1.223351	71.683204	-27.783450	-11.471188	-100.960187	35.563204	7.402367	0.000000	75.279865	-30.294046	-3.865815	-98.732398	33.388605	17.938927	0.000000	-11.098340	1.535572	3.262570
7.075000	10.060656	1.528211	-178.294288	0.325019	0.577042	-1.223395	71.122051	-27.731050	-11.772261	-100.133938	35.267997	7.447497	0.000000	74.683024	-30.239650	-4.229130	-97.926564	33.066820	18.029251	0.000000	-10.986652	1.460519	3.269047
7.080000	10.080898	1.528444	-178.290569	0.324738	0.581411	-1.223493	70.512107	-27.635166	-12.088460	-99.275200	35.013537	7.501024	0.000000	74.057588	-30.211672	-4.611249	-97.087142	32.761288	18.046718	0.000000	-10.869492	1.491965	3.187026
7.085000	10.124131	1.542291	-178.258847	0.324440	0.585840	-1.223607	69.911169	-27.550511	-12.439961	-98.407239	34.716875	7.536905	0.000000	73.456459	-30.159861	-4.987494	-96.221434	32.445300	18.071156	0.000000	-10.740998	1.488244	3.117363
7.090000	10.153729	1.550789	-178.227452	0.324117	0.590244	-1.223689	69.312350	-27.462156	-12.769104	-97.551586	34.404223	7.560207	0.000000	72.854298	-30.102120	-5.335338	-95.365271	32.089523	18.085989	0.000000	-10.611837	1.466913	3.125681
7.095000	10.184729	1.538209	-178.201289	0.323751	0.594735	-1.223675	68.717391	-27.383484	-13.071656	-96.678567	34.101751	7.546375	0.000000	72.224614	-30.036672	-5.733910	-94.552406	31.676209	18.061747	0.000000	-10.484835	1.460752	3.067171
7.100000	10.207765	1.533723	-178.163859	0.323381	0.599213	-1.223703	68.102887	-27.312657	-13.400742	-95.802348	33.781919	7.573851	0.000000	71.588362	-29.966816	-6.125934	-93.684379	31.332335	18.077752	0.000000	-10.360418	1.452848	3.020511
7.105000	10.269290	1.532917	-178.144814	0.322995	0.603713	-1.223720	67.514087	-27.219446	-13.734141	-94.892687	33.452826	7.578274	0.000000	70.966511	-29.897621	-6.523424	-92.789304	30.981132	18.064137	0.000000	-10.205275	1.434061	3.034045
7.110000	10.285947	1.500746	-178.103845	0.322656	0.608165	-1.223820	66.909649	-27.133344	-13.968554	-94.027603	33.111264	7.762293	0.000000	70.312229	-29.804560	-6.911750	-91.894812	30.599287	18.144112	0.000000	-10.082523	1.391126	2.958257
7.115000	10.323041	1.504834	-178.101206	0.322254	0.612651	-1.223877	66.323009	-27.023360	-14.345981	-93.111924	32.706481	7.620767	0.000000	69.659642	-29.764037	-7.316090	-90.941732	30.339188	18.202663	0.000000	-9.941193	1.388091	2.943108
7.120000	10.338822	1.508412	-178.061527	0.321777	0.617231	-1.223879	65.666237	-26.925839	-14.704205	-92.200425	32.416188	7.545200	0.000000	68.911109	-29.668752	-7.898872	-89.979387	30.109297	17.884899	0.000000	-9.821813	1.393606	2.870351
7.125000	10.472352	1.626262	-178.137376	0.321516	0.621561	-1.224440	65.166257	-26.596045	-15.070151	-91.292011	32.029995	7.502592	0.000000	68.477561	-29.784321	-8.163427	-89.125215	29.612285	17.929509	0.000000	-9.582399	1.447740	2.936101
7.130000	10.509670	1.641389	-178.094127	0.321113	0.626127	-1.224525	64.534629	-26.460746	-15.348914	-90.360353	31.666807	7.658452	0.000000	67.835365	-29.699861	-8.526026	-88.193275	29.241646	18.009702	0.000000	-9.452868	1.433885	2.895386
7.135000	10.504921	1.586865	-178.029810	0.320652	0.630743	-1.224527	63.862659	-26.415520	-15.719729	-89.383074	31.357740	7.478899	0.000000	67.136140	-29.542649	-8.859235	-87.180116	28.860137	18.247629	0.000000	-9.359553	1.353137	2.824207
